<svg width="1799" height="881" viewBox="0 0 1799 881" fill="none" xmlns="http://www.w3.org/2000/svg">
<path d="M179.5 134C93.1485 216.143 48.3847 279.553 22.9999 396C-7.59986 536.369 -23.9198 668.548 88.4999 758C194.692 842.496 296.5 818.499 442 787C587.5 755.5 696.177 708.237 861 730.5C1033.35 753.779 1107.12 893.712 1280.5 880C1399.4 870.596 1473.38 846.651 1566 771.5C1716.03 649.767 1782 435.499 1796 308C1810 180.5 1765 67 1671.5 23.9997C1578 -19.0005 1347.72 112.397 1138 96.9997C979.147 85.3372 977.5 -53.1168 659 23.9997C340.5 101.116 342.611 -21.163 179.5 134Z" fill="#FFD600"/>
</svg>
