<svg width="44" height="44" viewBox="0 0 44 44" fill="none" xmlns="http://www.w3.org/2000/svg">
<path fill-rule="evenodd" clip-rule="evenodd" d="M3 22C3 11.5066 11.5066 3 22 3C32.4935 3 41 11.5066 41 22V24.8243C41 28.5584 37.9729 31.5856 34.2387 31.5856C31.9871 31.5856 29.9925 30.4849 28.7637 28.7923C27.0302 30.5186 24.6397 31.5856 22 31.5856C16.706 31.5856 12.4144 27.2939 12.4144 22C12.4144 16.706 16.706 12.4144 22 12.4144C27.2939 12.4144 31.5856 16.706 31.5856 22V24.8243C31.5856 26.2896 32.7735 27.4775 34.2387 27.4775C35.704 27.4775 36.8919 26.2896 36.8919 24.8243V22C36.8919 13.7754 30.2246 7.10811 22 7.10811C13.7754 7.10811 7.10811 13.7754 7.10811 22C7.10811 30.2246 13.7754 36.8919 22 36.8919H29.5315C30.666 36.8919 31.5856 37.8115 31.5856 38.9459C31.5856 40.0804 30.666 41 29.5315 41H22C11.5066 41 3 32.4935 3 22ZM27.4775 22C27.4775 18.9749 25.0251 16.5225 22 16.5225C18.9749 16.5225 16.5225 18.9749 16.5225 22C16.5225 25.0251 18.9749 27.4775 22 27.4775C25.0251 27.4775 27.4775 25.0251 27.4775 22Z" fill="black"/>
</svg>
