<svg width="44" height="44" viewBox="0 0 44 44" fill="none" xmlns="http://www.w3.org/2000/svg">
<path d="M36.8265 8.22576L6.58072 19.6649C4.53959 20.3912 4.53959 21.6622 6.20961 22.0253L13.8174 24.3858L16.7864 33.1013C17.1575 34.0092 16.9719 34.3723 17.8997 34.3723C18.6419 34.3723 19.013 34.0092 19.3842 33.646C19.5697 33.4644 21.2397 31.8303 23.0953 30.0145L30.8887 35.6433C32.3732 36.3696 33.3009 36.0065 33.6721 34.3723L38.8677 10.5862C39.4243 8.5889 38.1254 7.49946 36.8265 8.22576ZM32.9298 13.673L18.4564 26.5647L17.8997 32.5566L14.9308 23.8411L32.002 13.3098C32.7443 12.7651 33.4865 13.1282 32.9298 13.673Z" fill="black"/>
</svg>
