<svg width="44" height="44" viewBox="0 0 44 44" fill="none" xmlns="http://www.w3.org/2000/svg">
<path d="M40.261 28.1591C39.3901 27.1644 38.4004 26.2729 37.4432 25.4107C37.1029 25.1041 36.751 24.7871 36.4118 24.4718C35.438 23.5659 35.4025 23.2255 36.1736 22.1964C36.707 21.4871 37.2726 20.7768 37.8196 20.0899C38.3157 19.4667 38.8288 18.8222 39.3205 18.1756L39.4214 18.0427C40.3613 16.8053 41.3332 15.5259 41.8505 13.9824C41.9848 13.5752 42.1259 12.976 41.8034 12.4749C41.4811 11.9743 40.856 11.8215 40.4137 11.7502C40.1949 11.7149 39.9777 11.7101 39.7761 11.7101L33.6213 11.7059L33.5704 11.7055C32.6398 11.7055 32.0127 12.1227 31.6533 12.9812C31.3103 13.8015 30.9334 14.675 30.5033 15.5056C29.6475 17.1594 28.5606 19.0643 26.9878 20.653L26.9213 20.7206C26.7355 20.9105 26.5251 21.1256 26.3713 21.1256C26.3478 21.1256 26.3221 21.1213 26.293 21.1126C25.9672 20.9918 25.7486 20.2414 25.7585 19.8923C25.7586 19.8875 25.7587 19.8827 25.7587 19.8779L25.7544 13.1093C25.7544 13.0858 25.7527 13.0625 25.7495 13.0393C25.5929 11.939 25.2461 11.254 23.9357 11.0098C23.9009 11.0032 23.8653 11 23.8298 11H17.4301C16.3874 11 15.8129 11.4032 15.2729 12.0068C15.1271 12.1681 14.8236 12.5039 14.974 12.9114C15.1266 13.3249 15.622 13.4133 15.7833 13.442C16.584 13.587 17.0353 14.0529 17.1631 14.8671C17.3863 16.281 17.4137 17.7901 17.2494 19.6164C17.2036 20.1239 17.113 20.516 16.9637 20.8509C16.929 20.929 16.806 21.1841 16.6806 21.1842C16.6408 21.1842 16.5255 21.1694 16.3155 21.0317C15.8191 20.7081 15.4559 20.2463 15.0324 19.6759C13.5918 17.7387 12.3828 15.6048 11.3357 13.1505C10.9474 12.2471 10.2222 11.7413 9.29269 11.7264C8.27139 11.7116 7.34544 11.7045 6.46231 11.7045C5.49738 11.7045 4.60281 11.713 3.72926 11.7303C2.98145 11.7429 2.46419 11.9562 2.19202 12.3647C1.91941 12.7736 1.93714 13.3107 2.24476 13.9609C4.70729 19.1699 6.94004 22.9573 9.48449 26.2418C11.2674 28.54 13.0556 30.1308 15.1117 31.2477C17.2778 32.4267 19.7053 33 22.5327 33C22.8532 33 23.1847 32.9926 23.5188 32.9777C25.1617 32.9015 25.7713 32.3357 25.8483 30.8136C25.885 30.0358 25.9744 29.22 26.3763 28.5243C26.6299 28.086 26.8664 28.086 26.9442 28.086C27.0939 28.086 27.2795 28.1516 27.4789 28.2744C27.8366 28.4965 28.1432 28.7941 28.3945 29.054C28.6312 29.3009 28.8651 29.5503 29.0993 29.7999C29.6047 30.3384 30.1272 30.8952 30.6731 31.4233C31.8679 32.58 33.1842 33.0887 34.696 32.9783H40.3389C40.3509 32.9783 40.363 32.9779 40.375 32.9772C40.9373 32.9419 41.4243 32.6451 41.7111 32.163C42.0664 31.5657 42.0593 30.8038 41.692 30.1243C41.2752 29.356 40.7346 28.6996 40.261 28.1591Z" fill="black"/>
</svg>
